<?xml version="1.0" encoding="UTF-8" standalone="no"?>
<!-- Generator: Gravit.io -->

<svg
   xmlns:dc="http://purl.org/dc/elements/1.1/"
   xmlns:cc="http://creativecommons.org/ns#"
   xmlns:rdf="http://www.w3.org/1999/02/22-rdf-syntax-ns#"
   xmlns:svg="http://www.w3.org/2000/svg"
   xmlns="http://www.w3.org/2000/svg"
   xmlns:sodipodi="http://sodipodi.sourceforge.net/DTD/sodipodi-0.dtd"
   xmlns:inkscape="http://www.inkscape.org/namespaces/inkscape"
   style="isolation:isolate"
   viewBox="0 0 101 30"
   width="101"
   height="30"
   version="1.1"
   id="svg3936"
   sodipodi:docname="logoku-inkscape-login.svg"
   inkscape:version="0.92.4 (5da689c313, 2019-01-14)">
  <metadata
     id="metadata3940">
    <rdf:RDF>
      <cc:Work
         rdf:about="">
        <dc:format>image/svg+xml</dc:format>
        <dc:type
           rdf:resource="http://purl.org/dc/dcmitype/StillImage" />
        <dc:title></dc:title>
      </cc:Work>
    </rdf:RDF>
  </metadata>
  <sodipodi:namedview
     pagecolor="#ffffff"
     bordercolor="#666666"
     borderopacity="1"
     objecttolerance="10"
     gridtolerance="10"
     guidetolerance="10"
     inkscape:pageopacity="0"
     inkscape:pageshadow="2"
     inkscape:window-width="1366"
     inkscape:window-height="705"
     id="namedview3938"
     showgrid="false"
     inkscape:zoom="12.158416"
     inkscape:cx="50.5"
     inkscape:cy="15"
     inkscape:window-x="-8"
     inkscape:window-y="-8"
     inkscape:window-maximized="1"
     inkscape:current-layer="svg3936" />
  <defs
     id="defs3898">
    <inkscape:perspective
       sodipodi:type="inkscape:persp3d"
       inkscape:vp_x="0 : 15 : 1"
       inkscape:vp_y="0 : 1000 : 0"
       inkscape:vp_z="101 : 15 : 1"
       inkscape:persp3d-origin="50.5 : 10 : 1"
       id="perspective3958" />
    <clipPath
       id="_clipPath_Yka5pBIwfihvIztqSUtJpi1JpAIhrUBU">
      <rect
         width="101"
         height="30"
         id="rect3895" />
    </clipPath>
  </defs>
  <g
     id="g3983"
     transform="matrix(1.0600687,0,0,1.0600687,-4.3290863,-1.0817492)"
     style="fill:#0000ff">
    <path
       transform="matrix(0.99849893,-0.15559375,0.13542902,1.0077435,-0.89691532,3.3989969)"
       style="fill:#0000ff"
       inkscape:transform-center-x="1.0283813"
       inkscape:transform-center-y="-0.051197894"
       d="M 23.769544,22.433224 16.333083,19.829886 9.9726721,24.479993 10.150601,16.603022 3.7626121,11.990874 11.309039,9.7259771 13.721456,2.2254062 18.207475,8.702593 26.086419,8.6791336 21.312505,14.947152 Z"
       id="path3978"
       inkscape:connector-curvature="0" />
    <g
       aria-label="myRobot"
       transform="scale(0.86101223,1.1614237)"
       style="font-style:normal;font-weight:normal;font-size:65.39233398px;line-height:1.25;font-family:sans-serif;letter-spacing:0px;word-spacing:0px;fill:#0000ff;fill-opacity:1;stroke:none;stroke-width:1.6348083"
       id="text3976">
      <path
         d="m 30.19687,18.665854 0.255208,-4.39323 0.145834,-3.436197 0.01823,-1.4765628 q 1.002604,0.018229 1.768229,0.018229 0.865885,0 1.686198,-0.018229 l -0.0638,1.2122398 q 0.282552,-0.364584 0.473958,-0.55599 0.200521,-0.2005206 0.483073,-0.3736977 0.282552,-0.1822917 0.583333,-0.2825521 0.300782,-0.109375 0.67448,-0.173177 0.373697,-0.063802 0.783854,-0.063802 0.464843,0 0.85677,0.082031 0.391928,0.072917 0.67448,0.1914063 0.282552,0.1184895 0.492187,0.2734375 0.209635,0.1549479 0.364583,0.355469 0.164063,0.191406 0.373698,0.565104 0.401042,-0.583333 0.847657,-0.8841147 0.446614,-0.3007813 1.011718,-0.4375 0.574219,-0.1458333 1.175781,-0.1458333 0.792969,0 1.494792,0.2278646 0.701823,0.2278645 1.148438,0.7929684 0.455729,0.55599 0.455729,1.449219 0,0.419271 -0.0638,1.266927 -0.05469,0.847656 -0.164063,2.916667 -0.10026,2.059895 -0.109375,2.889323 -0.838542,-0.01823 -1.622396,-0.01823 -0.957031,0 -2.005208,0.01823 0.09115,-1.157553 0.182292,-2.898438 0.10026,-1.75 0.10026,-2.424479 0,-0.583333 -0.136719,-0.865885 -0.136718,-0.291667 -0.355468,-0.391927 -0.209636,-0.109375 -0.464844,-0.109375 -0.273438,0 -0.473958,0.10026 -0.21875,0.109375 -0.382813,0.33724 -0.21875,0.300781 -0.355469,0.75651 -0.109375,0.355469 -0.173177,1.084635 -0.0638,0.747396 -0.10026,1.96875 l -0.07292,2.442709 q -0.97526,-0.01823 -1.759114,-0.01823 -0.802084,0 -1.886719,0.01823 0.08203,-0.811198 0.191406,-2.725261 0.109375,-1.914062 0.109375,-2.561198 0,-0.546875 -0.109375,-0.820312 -0.109375,-0.273438 -0.309896,-0.4375 -0.191406,-0.164063 -0.519531,-0.164063 -0.355469,0 -0.619791,0.209636 -0.264323,0.209635 -0.45573,0.601562 -0.182291,0.391927 -0.264322,1.084636 -0.07292,0.683593 -0.136719,2.096354 -0.0638,1.41276 -0.08203,2.716146 -1.102865,-0.01823 -1.786459,-0.01823 -0.75651,0 -1.877604,0.01823 z"
         style="font-style:normal;font-variant:normal;font-weight:normal;font-stretch:normal;font-size:18.66666603px;font-family:'Eras Bold ITC';-inkscape-font-specification:'Eras Bold ITC';fill:#0000ff;stroke-width:1.6348083"
         id="path3988"
         inkscape:connector-curvature="0" />
      <path
         d="m 46.803641,22.831218 q -0.282552,-2.178385 -0.382812,-2.707031 0.574218,0.273437 1.011718,0.373698 0.446615,0.10026 0.765625,0.10026 0.33724,0 0.628906,-0.09115 0.300782,-0.09115 0.473959,-0.227864 0.173177,-0.127604 0.373698,-0.401042 0.209635,-0.273437 0.309895,-0.473958 0.100261,-0.191407 0.200521,-0.55599 L 48.47161,13.661947 47.004162,9.3598642 q 1.358073,0.018229 1.904948,0.018229 0.63802,0 1.740885,-0.018229 0.173177,0.7018228 0.638021,2.4244788 0.473958,1.722657 0.683594,2.697917 0.118489,0.53776 0.227864,1.367187 l 0.191406,-0.729166 q 0.09115,-0.291667 0.209636,-0.665365 0.118489,-0.373698 0.300781,-0.893229 l 0.592448,-1.658854 0.984375,-2.5429688 q 1.139323,0.018229 1.722656,0.018229 0.510417,0 1.822917,-0.018229 l -1.759115,3.9739578 -3.180989,7.373698 q -0.309896,0.619792 -0.592448,0.984375 -0.264323,0.328125 -0.574219,0.574219 -0.291667,0.227864 -0.628906,0.382812 -0.455729,0.209636 -1.002604,0.328125 -0.601563,0.127604 -1.221354,0.127604 -0.282552,0 -0.747396,-0.04557 -0.464844,-0.03646 -0.756511,-0.08203 -0.282552,-0.03646 -0.75651,-0.145833 z"
         style="font-style:normal;font-variant:normal;font-weight:normal;font-stretch:normal;font-size:18.66666603px;font-family:'Eras Bold ITC';-inkscape-font-specification:'Eras Bold ITC';fill:#0000ff;stroke-width:1.6348083"
         id="path3990"
         inkscape:connector-curvature="0" />
      <path
         d="m 58.698172,18.665854 q 0.173177,-1.604167 0.273438,-2.889323 0.10026,-1.285157 0.173177,-2.980469 0.07292,-1.695312 0.109375,-3.5729165 0.03646,-1.8867187 0.03646,-2.9986978 1.139323,0.027344 1.841146,0.027344 0.729167,0 1.777344,-0.036458 1.048177,-0.045573 2.041666,-0.045573 1.166667,0 2.078125,0.091146 0.683594,0.063802 1.239583,0.2643229 0.565105,0.2005208 0.947917,0.4921875 0.382813,0.2825521 0.638021,0.6380208 0.255208,0.3554687 0.391927,0.8385416 0.145833,0.4739584 0.145833,1.0208333 0,0.6106772 -0.154948,1.1484382 -0.154948,0.528645 -0.492187,1.002604 -0.328125,0.464843 -0.838542,0.811198 -0.501302,0.337239 -1.41276,0.692708 l 0.473958,1.157552 q 0.200521,0.483073 0.428386,0.984375 l 1.221354,2.670573 q 0.08203,0.173177 0.291666,0.683594 -1.503906,-0.01823 -2.023437,-0.01823 -0.65625,0 -2.151042,0.01823 -0.145833,-0.473959 -0.528646,-1.759115 -0.154947,-0.53776 -0.264322,-0.829427 -0.21875,-0.647135 -0.647136,-1.813802 l -0.938802,-2.579427 q 0.492188,0.09115 0.966146,0.09115 0.665365,0 1.203125,-0.200521 0.546875,-0.200521 0.820312,-0.619792 0.282552,-0.419271 0.282552,-0.884114 0,-0.3919277 -0.209635,-0.6835943 -0.209635,-0.3007813 -0.665365,-0.4466146 -0.446614,-0.1458333 -1.385416,-0.1458333 -0.319011,0 -0.665365,0.018229 -0.337239,0.00911 -0.792968,0.018229 -0.11849,1.8684892 -0.209636,4.5572912 -0.09115,2.688802 -0.118489,5.277344 -1.522136,-0.01823 -1.977865,-0.01823 -0.528646,0 -1.904948,0.01823 z"
         style="font-style:normal;font-variant:normal;font-weight:normal;font-stretch:normal;font-size:18.66666603px;font-family:'Eras Bold ITC';-inkscape-font-specification:'Eras Bold ITC';fill:#0000ff;stroke-width:1.6348083"
         id="path3992"
         inkscape:connector-curvature="0" />
      <path
         d="m 77.118742,9.1228851 q 1.130209,0 2.169271,0.3463541 1.048177,0.3463542 1.768229,1.0026038 0.720052,0.647136 1.057292,1.522136 0.346354,0.865885 0.346354,1.868489 0,0.975261 -0.309896,1.859375 -0.300781,0.875 -1.029948,1.64974 -0.729166,0.765625 -1.859375,1.148437 -1.121093,0.382813 -2.378906,0.382813 -1.157552,0 -2.223958,-0.33724 -1.066406,-0.337239 -1.786458,-0.984375 -0.710938,-0.647135 -1.075521,-1.549479 -0.355469,-0.902344 -0.355469,-1.895833 0,-0.99349 0.346354,-1.895834 0.355469,-0.902343 1.111979,-1.622395 0.765625,-0.7200524 1.886719,-1.1028649 1.121094,-0.391927 2.333333,-0.391927 z m -0.0638,2.6796869 q -0.583333,0 -1.039062,0.300782 -0.455729,0.300781 -0.692708,0.884114 -0.227865,0.574219 -0.227865,1.257813 0,1.002604 0.501302,1.540364 0.501302,0.528646 1.257813,0.528646 0.574218,0 1.029947,-0.300781 0.45573,-0.309896 0.683594,-0.902344 0.236979,-0.601562 0.236979,-1.285156 0,-0.565104 -0.182291,-1.020833 -0.182292,-0.45573 -0.601563,-0.729167 -0.410156,-0.273438 -0.966146,-0.273438 z"
         style="font-style:normal;font-variant:normal;font-weight:normal;font-stretch:normal;font-size:18.66666603px;font-family:'Eras Bold ITC';-inkscape-font-specification:'Eras Bold ITC';fill:#0000ff;stroke-width:1.6348083"
         id="path3994"
         inkscape:connector-curvature="0" />
      <path
         d="m 83.763275,18.665854 q 0.255208,-2.871094 0.446615,-6.690104 0.191406,-3.8190107 0.191406,-5.7513023 1.057292,0.018229 1.977864,0.018229 0.902344,0 1.76823,-0.018229 -0.200521,1.4218749 -0.291667,3.126302 0.829427,-0.1367188 1.276042,-0.1822917 0.446614,-0.045573 0.884114,-0.045573 1.403646,0 2.397135,0.4466145 1.002605,0.4375005 1.622396,1.4856775 0.628906,1.048177 0.628906,2.561198 0,1.51302 -0.592447,2.789062 -0.592448,1.266927 -1.585938,1.886719 -0.993489,0.610677 -2.315104,0.610677 -0.492187,0 -0.938802,-0.100261 -0.446615,-0.10026 -0.811198,-0.291666 -0.364583,-0.200521 -0.610677,-0.419271 -0.246094,-0.21875 -0.565104,-0.592448 l -0.03646,1.166667 q -0.975261,-0.01823 -1.631511,-0.01823 -0.53776,0 -1.813802,0.01823 z m 3.83724,-6.753907 q -0.07292,1.513021 -0.07292,1.850261 0,0.856771 0.145833,1.358073 0.154948,0.501302 0.574219,0.802083 0.428385,0.300781 0.957031,0.300781 0.546875,0 0.957031,-0.300781 0.410157,-0.300781 0.619792,-0.875 0.21875,-0.583333 0.21875,-1.221354 0,-0.957031 -0.519531,-1.53125 -0.510417,-0.583333 -1.476563,-0.583333 -0.601562,0 -1.403645,0.20052 z"
         style="font-style:normal;font-variant:normal;font-weight:normal;font-stretch:normal;font-size:18.66666603px;font-family:'Eras Bold ITC';-inkscape-font-specification:'Eras Bold ITC';fill:#0000ff;stroke-width:1.6348083"
         id="path3996"
         inkscape:connector-curvature="0" />
      <path
         d="m 101.43645,9.1228851 q 1.13021,0 2.16927,0.3463541 1.04818,0.3463542 1.76823,1.0026038 0.72006,0.647136 1.05729,1.522136 0.34636,0.865885 0.34636,1.868489 0,0.975261 -0.3099,1.859375 -0.30078,0.875 -1.02994,1.64974 -0.72917,0.765625 -1.85938,1.148437 -1.12109,0.382813 -2.37891,0.382813 -1.15755,0 -2.223954,-0.33724 -1.066406,-0.337239 -1.786458,-0.984375 -0.710938,-0.647135 -1.075521,-1.549479 -0.355469,-0.902344 -0.355469,-1.895833 0,-0.99349 0.346354,-1.895834 0.355469,-0.902343 1.111979,-1.622395 0.765625,-0.7200524 1.886719,-1.1028649 1.12109,-0.391927 2.33333,-0.391927 z m -0.0638,2.6796869 q -0.58333,0 -1.03906,0.300782 -0.45573,0.300781 -0.69271,0.884114 -0.227864,0.574219 -0.227864,1.257813 0,1.002604 0.501302,1.540364 0.501302,0.528646 1.257812,0.528646 0.57422,0 1.02995,-0.300781 0.45573,-0.309896 0.68359,-0.902344 0.23698,-0.601562 0.23698,-1.285156 0,-0.565104 -0.18229,-1.020833 -0.18229,-0.45573 -0.60156,-0.729167 -0.41016,-0.273438 -0.96615,-0.273438 z"
         style="font-style:normal;font-variant:normal;font-weight:normal;font-stretch:normal;font-size:18.66666603px;font-family:'Eras Bold ITC';-inkscape-font-specification:'Eras Bold ITC';fill:#0000ff;stroke-width:1.6348083"
         id="path3998"
         inkscape:connector-curvature="0" />
      <path
         d="m 114.89869,15.986166 q -0.16406,0.765625 -0.28255,1.494792 l -0.20052,1.111979 q -0.90235,0.200521 -1.41276,0.255208 -0.50131,0.05469 -0.97526,0.05469 -0.77474,0 -1.37631,-0.136719 -0.60156,-0.127604 -1.0026,-0.473958 -0.40104,-0.355469 -0.54687,-0.811198 -0.14584,-0.455729 -0.14584,-0.966146 0,-0.09115 0.009,-0.31901 0.009,-0.23698 0.0638,-1.039063 l 0.20052,-3.153646 h -1.42188 q 0.0456,-0.628906 0.082,-1.658854 l 0.0273,-0.847656 h 1.51302 q 0.0547,-0.4192708 0.13672,-1.8320312 l 1.55859,-0.3190104 q 0.42839,-0.082031 1.82292,-0.4192708 -0.0638,1.1940103 -0.0911,2.5703124 h 2.07813 q -0.0729,1.895833 -0.0729,2.50651 h -2.09635 l -0.10938,2.278646 q -0.0182,0.510417 -0.0182,0.65625 0,0.4375 0.0911,0.729167 0.10026,0.291666 0.33724,0.419271 0.24609,0.127604 0.53776,0.127604 0.21875,0 0.45573,-0.02734 0.23698,-0.03646 0.83854,-0.200521 z"
         style="font-style:normal;font-variant:normal;font-weight:normal;font-stretch:normal;font-size:18.66666603px;font-family:'Eras Bold ITC';-inkscape-font-specification:'Eras Bold ITC';fill:#0000ff;stroke-width:1.6348083"
         id="path4000"
         inkscape:connector-curvature="0" />
    </g>
  </g>
</svg>
